<svg width="532" height="581" viewBox="0 0 532 581" fill="none" xmlns="http://www.w3.org/2000/svg">
<path fill-rule="evenodd" clip-rule="evenodd" d="M509.434 88.4464L511.603 91.2004L513.614 94.0976L515.462 97.1319L517.146 100.297L518.664 103.585L520.015 106.989L521.198 110.5L522.216 114.11L523.069 117.811L523.759 121.592L524.29 125.445L524.665 129.361L524.889 133.33L524.966 137.343L524.904 141.39L524.707 145.462L524.383 149.551L523.938 153.648L523.379 157.745L522.713 161.836L521.945 165.914L521.083 169.971L520.133 174.004L519.101 178.005L517.994 181.971L516.819 185.897L515.58 189.779L514.285 193.613L512.937 197.397L511.544 201.128L510.11 204.803L508.64 208.42L507.139 211.979L505.612 215.477L504.063 218.913L502.497 222.286L500.92 225.595L499.337 228.84L497.751 232.02L496.17 235.134L494.596 238.184L493.036 241.168L491.495 244.088L489.978 246.943L488.488 249.735L487.032 252.464L485.614 255.133L484.238 257.741L482.908 260.291L481.629 262.785L480.404 265.224L479.238 267.611L478.134 269.948L477.095 272.238L476.124 274.483L475.224 276.686L474.398 278.85L473.648 280.978L472.977 283.074L472.386 285.139L471.878 287.179L471.453 289.196L471.114 291.193L470.86 293.174L470.693 295.143L470.614 297.103L470.622 299.059L470.719 301.012L470.903 302.968L471.175 304.93L471.534 306.901L471.98 308.885L472.51 310.886L473.125 312.907L473.822 314.951L474.601 317.022L475.458 319.123L476.393 321.257L477.402 323.428L478.484 325.638L479.635 327.891L480.853 330.189L482.134 332.535L483.475 334.931L484.873 337.379L486.324 339.882L487.823 342.443L489.366 345.061L490.95 347.74L492.569 350.481L494.219 353.284L495.895 356.151L497.593 359.082L499.306 362.078L501.03 365.14L502.761 368.267L504.492 371.46L506.218 374.717L507.936 378.04L509.639 381.426L511.322 384.875L512.982 388.386L514.612 391.958L516.209 395.589L517.766 399.278L519.279 403.022L520.74 406.818L522.145 410.664L523.485 414.555L524.753 418.486L525.942 422.453L527.044 426.45L528.049 430.471L528.951 434.509L529.741 438.557L530.411 442.607L530.952 446.65L531.357 450.677L531.617 454.68L531.725 458.647L531.674 462.569L531.456 466.435L531.065 470.235L530.497 473.956L529.746 477.59L528.811 481.126L527.689 484.554L526.378 487.865L524.878 491.048L523.19 494.096L521.316 497L519.259 499.754L517.022 502.35L514.61 504.782L512.028 507.046L509.281 509.136L506.378 511.049L503.325 512.782L500.131 514.333L496.804 515.701L493.354 516.887L489.79 517.89L486.122 518.713L482.36 519.359L478.515 519.83L474.598 520.132L470.62 520.269L466.592 520.249L462.524 520.077L458.427 519.763L454.312 519.315L450.19 518.741L446.07 518.053L441.962 517.261L437.876 516.376L433.821 515.41L429.805 514.375L425.836 513.283L421.921 512.148L418.068 510.983L414.281 509.8L410.567 508.613L406.93 507.435L403.374 506.28L399.902 505.16L396.516 504.088L393.219 503.076L390.01 502.137L386.891 501.281L383.86 500.52L380.916 499.863L378.057 499.321L375.281 498.901L372.584 498.612L369.961 498.46L367.41 498.452L364.924 498.592L362.498 498.884L360.127 499.332L357.804 499.937L355.522 500.699L353.276 501.618L351.057 502.693L348.86 503.922L346.677 505.3L344.502 506.824L342.327 508.487L340.146 510.284L337.953 512.208L335.74 514.251L333.503 516.404L331.236 518.658L328.933 521.004L326.589 523.431L324.201 525.929L321.763 528.485L319.274 531.088L316.73 533.727L314.128 536.389L311.466 539.063L308.744 541.736L305.961 544.397L303.116 547.033L300.209 549.633L297.241 552.185L294.214 554.679L291.13 557.104L287.989 559.45L284.796 561.709L281.552 563.872L278.261 565.931L274.926 567.878L271.552 569.708L268.141 571.412L264.699 572.986L261.229 574.423L257.737 575.719L254.227 576.867L250.705 577.866L247.174 578.71L243.641 579.398L240.11 579.926L236.587 580.293L233.076 580.499L229.582 580.542L226.111 580.424L222.667 580.144L219.254 579.706L215.877 579.111L212.54 578.362L209.246 577.462L205.998 576.417L202.801 575.231L199.655 573.908L196.564 572.455L193.53 570.878L190.553 569.183L187.635 567.378L184.776 565.469L181.976 563.465L179.235 561.373L176.552 559.2L173.925 556.956L171.354 554.648L168.835 552.283L166.366 549.871L163.945 547.419L161.568 544.934L159.232 542.425L156.932 539.899L154.665 537.363L152.425 534.823L150.21 532.286L148.013 529.758L145.83 527.245L143.656 524.752L141.486 522.282L139.315 519.842L137.137 517.433L134.949 515.06L132.745 512.724L130.52 510.429L128.27 508.175L125.991 505.964L123.678 503.797L121.328 501.672L118.937 499.59L116.503 497.55L114.021 495.55L111.491 493.589L108.909 491.664L106.274 489.772L103.586 487.911L100.843 486.076L98.0459 484.265L95.1947 482.472L92.2904 480.693L89.3349 478.925L86.3303 477.16L83.2794 475.395L80.1855 473.625L77.0523 471.843L73.8842 470.045L70.6856 468.225L67.4611 466.379L64.2152 464.502L60.9522 462.591L57.6762 460.641L54.3915 458.649L51.1021 456.613L47.8118 454.53L44.5243 452.398L41.2433 450.214L37.9723 447.976L34.7144 445.684L31.4728 443.337L28.2504 440.932L25.05 438.469L21.874 435.949L18.7249 433.369L15.6051 430.731L12.517 428.034L9.46353 425.278L6.44729 422.462L3.4713 419.587L0.538671 416.651L-2.34721 413.657L-5.18278 410.602L-7.9643 407.489L-10.6879 404.316L-13.3495 401.084L-15.9451 397.794L-18.4704 394.446L-20.9213 391.041L-23.2934 387.58L-25.5825 384.063L-27.7842 380.494L-29.8943 376.872L-31.9086 373.199L-33.8229 369.477L-35.633 365.709L-37.3351 361.896L-38.9252 358.04L-40.3995 354.145L-41.7543 350.212L-42.9862 346.244L-44.0918 342.245L-45.0679 338.218L-45.9117 334.165L-46.6202 330.091L-47.191 325.998L-47.6216 321.89L-47.91 317.772L-48.0542 313.646L-48.0528 309.518L-47.9042 305.39L-47.6074 301.266L-47.1615 297.152L-46.5661 293.05L-45.8208 288.966L-44.9257 284.903L-43.8811 280.866L-42.6877 276.858L-41.3464 272.884L-39.8583 268.947L-38.2252 265.053L-36.4488 261.204L-34.5313 257.405L-32.4753 253.659L-30.2834 249.969L-27.9587 246.341L-25.5047 242.775L-22.9249 239.277L-20.2234 235.848L-17.4043 232.492L-14.472 229.211L-11.4314 226.007L-8.28713 222.883L-5.04448 219.841L-1.70865 216.881L1.71494 214.007L5.22076 211.218L8.80321 208.516L12.4566 205.902L16.1754 203.376L19.954 200.938L23.7869 198.589L27.6687 196.328L31.594 194.156L35.5575 192.071L39.554 190.074L43.578 188.163L47.6245 186.337L51.6874 184.595L55.7606 182.934L59.8372 181.352L63.91 179.846L67.9715 178.412L72.0139 177.045L76.0291 175.742L80.009 174.496L83.9453 173.301L87.8296 172.151L91.6535 171.04L95.4087 169.959L99.087 168.9L102.68 167.854L106.18 166.814L109.578 165.767L112.868 164.706L116.043 163.619L119.098 162.497L122.027 161.33L124.827 160.109L127.495 158.823L130.029 157.464L132.43 156.024L134.695 154.494L136.828 152.867L138.83 151.136L140.703 149.294L142.452 147.337L144.081 145.258L145.596 143.055L147.003 140.723L148.309 138.262L149.52 135.668L150.647 132.942L151.697 130.084L152.679 127.096L153.602 123.98L154.478 120.739L155.315 117.378L156.125 113.902L156.917 110.316L157.703 106.629L158.492 102.848L159.294 98.9813L160.121 95.039L160.982 91.031L161.887 86.9683L162.844 82.8623L163.863 78.7251L164.952 74.569L166.118 70.407L167.37 66.2522L168.713 62.118L170.154 58.0181L171.697 53.9659L173.347 49.9753L175.108 46.0596L176.983 42.2322L178.974 38.5063L181.082 34.8947L183.308 31.4096L185.652 28.0631L188.113 24.8664L190.689 21.8303L193.379 18.9648L196.178 16.2793L199.084 13.7822L202.093 11.4813L205.199 9.38346L208.397 7.49449L211.682 5.81942L215.047 4.36225L218.486 3.126L221.991 2.11274L225.556 1.32349L229.173 0.75824L232.835 0.416027L236.534 0.294872L240.263 0.391791L244.014 0.702837L247.779 1.22313L251.55 1.94674L255.322 2.86696L259.085 3.97613L262.835 5.26591L266.564 6.72719L270.266 8.35025L273.936 10.1248L277.568 12.0396L281.158 14.0828L284.701 16.2415L288.194 18.5022L291.632 20.851L295.015 23.2735L298.34 25.755L301.605 28.2807L304.81 30.8357L307.955 33.4056L311.042 35.9759L314.07 38.5328L317.042 41.0628L319.962 43.5533L322.83 45.9926L325.652 48.3695L328.43 50.674L331.17 52.8966L333.876 55.0282L336.553 57.0608L339.205 58.9869L341.839 60.7998L344.461 62.4939L347.075 64.0643L349.688 65.5072L352.306 66.8196L354.935 67.9996L357.58 69.0462L360.247 69.9594L362.941 70.7401L365.668 71.3902L368.433 71.9125L371.24 72.3105L374.093 72.589L376.997 72.7533L379.955 72.8094L382.969 72.7644L386.042 72.6259L389.175 72.4023L392.371 72.1023L395.629 71.7353L398.95 71.3115L402.332 70.8411L405.775 70.3348L409.278 69.8036L412.836 69.2588L416.447 68.7119L420.108 68.1743L423.814 67.6576L427.559 67.1732L431.339 66.7326L435.146 66.3469L438.975 66.0273L442.819 65.7842L446.668 65.628L450.517 65.5685L454.356 65.6152L458.176 65.7769L461.969 66.0617L465.725 66.4773L469.436 67.0306L473.091 67.7277L476.683 68.574L480.2 69.5742L483.635 70.732L486.977 72.0504L490.219 73.5314L493.351 75.1764L496.367 76.9855L499.257 78.9583L502.015 81.0935L504.635 83.3887L507.109 85.841L509.434 88.4464Z" fill="#FFD7AD"/>
</svg>
