<svg width="439" height="441" viewBox="0 0 439 441" fill="none" xmlns="http://www.w3.org/2000/svg">
<path fill-rule="evenodd" clip-rule="evenodd" d="M436.339 263.044L436.917 265.374L437.421 267.708L437.852 270.045L438.209 272.382L438.491 274.717L438.698 277.049L438.831 279.376L438.89 281.696L438.875 284.007L438.786 286.307L438.624 288.596L438.39 290.87L438.085 293.13L437.711 295.374L437.27 297.6L436.762 299.809L436.19 301.997L435.556 304.166L434.863 306.314L434.111 308.441L433.304 310.547L432.445 312.63L431.534 314.692L430.576 316.732L429.572 318.75L428.525 320.747L427.438 322.722L426.312 324.676L425.151 326.61L423.955 328.524L422.729 330.418L421.473 332.294L420.19 334.151L418.882 335.991L417.55 337.814L416.196 339.621L414.822 341.413L413.428 343.19L412.017 344.953L410.589 346.701L409.144 348.437L407.684 350.159L406.208 351.868L404.718 353.565L403.214 355.249L401.695 356.921L400.163 358.58L398.616 360.227L397.056 361.861L395.482 363.483L393.895 365.093L392.295 366.69L390.681 368.274L389.054 369.846L387.414 371.405L385.76 372.952L384.092 374.485L382.412 376.005L380.717 377.512L379.01 379.004L377.288 380.483L375.553 381.948L373.805 383.399L372.042 384.835L370.266 386.256L368.476 387.662L366.672 389.052L364.854 390.427L363.023 391.786L361.178 393.13L359.319 394.456L357.447 395.767L355.561 397.06L353.661 398.337L351.748 399.597L349.822 400.839L347.883 402.065L345.931 403.272L343.965 404.463L341.988 405.635L339.997 406.79L337.995 407.928L335.98 409.047L333.953 410.149L331.914 411.233L329.864 412.299L327.802 413.348L325.729 414.379L323.645 415.393L321.55 416.389L319.445 417.367L317.328 418.328L315.202 419.272L313.065 420.198L310.918 421.108L308.761 421.999L306.594 422.874L304.417 423.731L302.23 424.572L300.034 425.394L297.829 426.2L295.614 426.987L293.389 427.757L291.156 428.509L288.913 429.243L286.661 429.959L284.399 430.656L282.129 431.334L279.849 431.992L277.561 432.63L275.263 433.247L272.957 433.844L270.642 434.419L268.319 434.972L265.987 435.503L263.647 436.01L261.299 436.495L258.943 436.955L256.579 437.391L254.208 437.802L251.83 438.188L249.445 438.548L247.053 438.881L244.655 439.187L242.251 439.465L239.841 439.714L237.426 439.934L235.007 440.124L232.583 440.284L230.155 440.412L227.724 440.508L225.29 440.572L222.853 440.602L220.415 440.598L217.976 440.56L215.536 440.486L213.096 440.376L210.657 440.231L208.22 440.048L205.784 439.829L203.352 439.573L200.922 439.279L198.498 438.948L196.077 438.581L193.663 438.176L191.254 437.734L188.852 437.256L186.457 436.742L184.071 436.191L181.693 435.604L179.324 434.981L176.965 434.323L174.616 433.63L172.278 432.903L169.951 432.14L167.637 431.344L165.335 430.514L163.045 429.652L160.77 428.756L158.507 427.829L156.26 426.87L154.026 425.881L151.808 424.861L149.605 423.812L147.417 422.735L145.244 421.629L143.088 420.497L140.947 419.338L138.823 418.154L136.714 416.945L134.621 415.713L132.545 414.458L130.484 413.182L128.439 411.884L126.409 410.567L124.395 409.231L122.395 407.878L120.41 406.507L118.439 405.12L116.482 403.719L114.538 402.304L112.607 400.875L110.688 399.434L108.781 397.982L106.885 396.519L104.999 395.047L103.124 393.566L101.257 392.076L99.3983 390.579L97.5476 389.075L95.7039 387.564L93.8666 386.048L92.0351 384.526L90.2085 382.998L88.3864 381.466L86.568 379.929L84.7529 378.388L82.9405 376.842L81.1302 375.292L79.3217 373.737L77.5145 372.177L75.7084 370.613L73.903 369.043L72.0983 367.468L70.294 365.887L68.4902 364.3L66.687 362.705L64.8845 361.103L63.083 359.493L61.2828 357.874L59.4845 356.245L57.6885 354.605L55.8955 352.954L54.1062 351.291L52.3214 349.615L50.5421 347.925L48.7691 346.22L47.0036 344.5L45.2468 342.763L43.4999 341.009L41.7641 339.236L40.0411 337.445L38.3323 335.634L36.6393 333.803L34.9638 331.95L33.3075 330.075L31.6722 328.178L30.0599 326.257L28.4723 324.313L26.9115 322.345L25.3794 320.353L23.878 318.335L22.4092 316.293L20.975 314.225L19.5774 312.132L18.2181 310.014L16.8991 307.871L15.6221 305.704L14.3888 303.512L13.2006 301.296L12.059 299.057L10.9652 296.795L9.92032 294.511L8.9253 292.207L7.98089 289.882L7.08778 287.538L6.24661 285.176L5.45792 282.797L4.72219 280.402L4.03978 277.992L3.41101 275.569L2.83606 273.133L2.31506 270.685L1.848 268.227L1.43478 265.761L1.07522 263.286L0.768992 260.805L0.515722 258.319L0.314864 255.828L0.165809 253.335L0.0678089 250.839L0.0200448 248.344L0.0215579 245.848L0.0713138 243.354L0.168146 240.863L0.310814 238.376L0.497971 235.894L0.728189 233.417L0.999928 230.947L1.31159 228.484L1.66149 226.03L2.04788 223.584L2.46894 221.148L2.92276 218.723L3.40744 216.308L3.92099 213.904L4.46141 211.512L5.02664 209.131L5.61463 206.763L6.22331 204.406L6.85059 202.062L7.49442 199.73L8.15274 197.41L8.82352 195.101L9.50477 192.805L10.1945 190.519L10.8909 188.244L11.592 185.98L12.2962 183.725L13.0017 181.48L13.7069 179.243L14.4103 177.014L15.1105 174.792L15.8062 172.576L16.4963 170.366L17.1796 168.16L17.8553 165.957L18.5226 163.758L19.1808 161.561L19.8295 159.364L20.4683 157.168L21.0969 154.971L21.7154 152.772L22.3238 150.571L22.9225 148.366L23.5117 146.158L24.0922 143.945L24.6646 141.728L25.2298 139.504L25.7888 137.274L26.3428 135.038L26.8931 132.795L27.4412 130.546L27.9886 128.289L28.537 126.025L29.0884 123.755L29.6445 121.478L30.2076 119.195L30.7797 116.906L31.3631 114.613L31.9601 112.316L32.5731 110.016L33.2044 107.714L33.8565 105.412L34.5319 103.11L35.233 100.811L35.9623 98.5152L36.7221 96.2251L37.5148 93.9425L38.3428 91.6691L39.2082 89.4071L40.1131 87.1586L41.0597 84.9256L42.0497 82.7105L43.0848 80.5155L44.1668 78.3429L45.297 76.1949L46.4767 74.0738L47.7068 71.9819L48.9882 69.9213L50.3216 67.8943L51.7072 65.9028L53.1454 63.9487L54.6358 62.0339L56.1783 60.1601L57.7723 58.3288L59.4172 56.5414L61.1122 54.7994L62.8565 53.1042L64.6491 51.4569L66.489 49.8587L68.3748 48.3106L70.3053 46.8136L72.2791 45.3684L74.2946 43.9758L76.3502 42.6362L78.4443 41.3501L80.575 40.1178L82.7406 38.9394L84.9389 37.8148L87.1681 36.744L89.4261 35.7266L91.7107 34.7622L94.0199 33.8502L96.3514 32.9897L98.7032 32.18L101.073 31.42L103.458 30.7085L105.857 30.0441L108.268 29.4253L110.687 28.8506L113.114 28.3183L115.545 27.8264L117.979 27.373L120.414 26.9561L122.849 26.5733L125.28 26.2225L127.706 25.9014L130.126 25.6073L132.539 25.338L134.941 25.0907L137.333 24.8629L139.713 24.6521L142.079 24.4554L144.431 24.2704L146.768 24.0942L149.089 23.9243L151.394 23.7581L153.681 23.5929L155.95 23.4263L158.202 23.2558L160.436 23.0791L162.652 22.8937L164.85 22.6976L167.03 22.4887L169.193 22.2649L171.34 22.0245L173.471 21.7658L175.586 21.4872L177.687 21.1874L179.774 20.8652L181.848 20.5195L183.911 20.1496L185.964 19.7548L188.007 19.3346L190.043 18.8888L192.072 18.4173L194.096 17.9204L196.116 17.3983L198.134 16.8517L200.15 16.2814L202.167 15.6884L204.186 15.0739L206.208 14.4394L208.235 13.7866L210.267 13.1177L212.306 12.4348L214.353 11.7404L216.41 11.0373L218.477 10.3282L220.555 9.61635L222.645 8.90488L224.747 8.19716L226.862 7.49668L228.991 6.80702L231.133 6.13185L233.289 5.4749L235.459 4.83993L237.642 4.23073L239.838 3.65109L242.046 3.10477L244.266 2.59547L246.497 2.12683L248.738 1.70243L250.988 1.32569L253.245 0.999926L255.509 0.728281L257.777 0.513745L260.048 0.359098L262.321 0.266889L264.593 0.239458L266.863 0.278874L269.128 0.386933L271.388 0.565146L273.639 0.814705L275.88 1.13655L278.109 1.53142L280.324 1.99991L282.522 2.54247L284.703 3.15936L286.863 3.85072L289 4.6165L291.114 5.45652L293.201 6.37041L295.26 7.35766L297.29 8.41762L299.287 9.54946L301.25 10.7522L303.179 12.0248L305.07 13.3659L306.922 14.7741L308.734 16.248L310.505 17.7859L312.233 19.3859L313.917 21.0463L315.555 22.7649L317.147 24.5397L318.692 26.3684L320.189 28.2489L321.637 30.1786L323.035 32.1552L324.384 34.176L325.682 36.2386L326.93 38.3403L328.127 40.4784L329.273 42.6502L330.369 44.853L331.414 47.084L332.41 49.3403L333.355 51.6194L334.252 53.9183L335.1 56.2344L335.9 58.5649L336.654 60.907L337.361 63.2583L338.024 65.6159L338.643 67.9773L339.22 70.3401L339.755 72.7017L340.251 75.0599L340.709 77.4122L341.13 79.7564L341.515 82.0905L341.867 84.4124L342.187 86.72L342.477 89.0116L342.738 91.2854L342.973 93.5398L343.183 95.7731L343.369 97.9841L343.535 100.171L343.68 102.334L343.808 104.47L343.921 106.579L344.019 108.66L344.104 110.713L344.179 112.736L344.245 114.73L344.303 116.693L344.356 118.626L344.404 120.528L344.449 122.399L344.493 124.239L344.538 126.049L344.583 127.827L344.632 129.575L344.685 131.292L344.744 132.978L344.812 134.634L344.888 136.259L344.975 137.855L345.076 139.42L345.19 140.957L345.32 142.464L345.467 143.942L345.633 145.393L345.819 146.815L346.027 148.211L346.259 149.581L346.515 150.925L346.797 152.244L347.107 153.539L347.445 154.812L347.813 156.062L348.212 157.292L348.643 158.501L349.107 159.692L349.606 160.864L350.14 162.02L350.711 163.161L351.319 164.288L351.965 165.401L352.651 166.503L353.377 167.595L354.144 168.677L354.954 169.751L355.807 170.819L356.704 171.883L357.645 172.942L358.632 174L359.664 175.057L360.741 176.115L361.865 177.177L363.033 178.243L364.247 179.316L365.505 180.396L366.807 181.487L368.151 182.59L369.538 183.706L370.965 184.837L372.432 185.985L373.936 187.151L375.476 188.338L377.051 189.546L378.657 190.778L380.294 192.035L381.959 193.318L383.649 194.628L385.362 195.968L387.095 197.337L388.846 198.737L390.612 200.17L392.389 201.635L394.175 203.134L395.966 204.667L397.761 206.236L399.554 207.84L401.344 209.479L403.127 211.155L404.899 212.866L406.657 214.614L408.398 216.397L410.119 218.216L411.817 220.07L413.487 221.959L415.128 223.883L416.735 225.839L418.306 227.828L419.838 229.849L421.327 231.901L422.771 233.982L424.168 236.091L425.513 238.227L426.806 240.388L428.043 242.574L429.222 244.781L430.341 247.01L431.398 249.258L432.391 251.523L433.318 253.803L434.178 256.097L434.969 258.403L435.69 260.719L436.339 263.044Z" fill="#FFCECF"/>
</svg>
