<svg width="92" height="101" viewBox="0 0 92 101" fill="none" xmlns="http://www.w3.org/2000/svg">
<path fill-rule="evenodd" clip-rule="evenodd" d="M62.6958 50.4984L62.71 50.6583L62.7527 50.8191L62.8238 50.9816L62.9237 51.1466L63.0526 51.3151L63.2108 51.4879L63.3988 51.6659L63.617 51.8501L63.8658 52.0415L64.146 52.2409L64.4581 52.4495L64.8028 52.6683L65.1807 52.8984L65.5926 53.1409L66.0391 53.397L66.5208 53.6679L67.0385 53.9548L67.5925 54.2589L68.1835 54.5816L68.8117 54.924L69.4772 55.2876L70.1801 55.6734L70.9201 56.0828L71.6967 56.5169L72.5091 56.9767L73.356 57.4633L74.2358 57.9774L75.1464 58.5198L76.0854 59.0908L77.0494 59.6908L78.0349 60.3195L79.0375 60.9767L80.0523 61.6614L81.0736 62.3726L82.0952 63.1086L83.1103 63.8672L84.1113 64.6458L85.0904 65.4413L86.039 66.2501L86.9485 67.0679L87.8097 67.8901L88.6137 68.7115L89.3513 69.5267L90.014 70.3298L90.5932 71.1146L91.0814 71.875L91.4715 72.6048L91.7577 73.2977L91.935 73.9478L92 74.5495L91.9504 75.0977L91.7854 75.5879L91.5056 76.0163L91.1133 76.3797L90.6119 76.676L90.0063 76.9037L89.3025 77.0624L88.5077 77.1525L87.6299 77.1753L86.6779 77.1329L85.6608 77.0281L84.5882 76.8642L83.4699 76.6454L82.3155 76.3761L81.1343 76.0611L79.9355 75.7053L78.7277 75.3139L77.5188 74.8922L76.3161 74.4453L75.1264 73.9781L73.9555 73.4954L72.8085 73.0019L71.6898 72.5017L70.6032 71.9989L69.5516 71.4971L68.5374 70.9995L67.5623 70.5091L66.6276 70.0285L65.734 69.5599L64.8819 69.1054L64.0713 68.6666L63.3016 68.2448L62.5724 67.8414L61.8828 67.4572L61.2318 67.093L60.6182 66.7494L60.0408 66.4268L59.4981 66.1257L58.9889 65.8462L58.5118 65.5884L58.0652 65.3526L57.6479 65.1386L57.2584 64.9465L56.8954 64.7764L56.5575 64.6281L56.2435 64.5018L55.9522 64.3973L55.6823 64.3147L55.4328 64.2541L55.2027 64.2155L54.9908 64.1992L54.7963 64.2052L54.6182 64.2338L54.4557 64.2853L54.3079 64.3601L54.1741 64.4585L54.0536 64.581L53.9456 64.7282L53.8495 64.9007L53.7645 65.0991L53.6902 65.3242L53.6258 65.5768L53.5708 65.8577L53.5245 66.168L53.4863 66.5085L53.4556 66.8804L53.4319 67.2847L53.4143 67.7225L53.4023 68.1949L53.395 68.7032L53.3919 69.2484L53.3919 69.8316L53.3943 70.454L53.3981 71.1165L53.4023 71.82L53.4058 72.5651L53.4075 73.3525L53.4061 74.1825L53.4002 75.0552L53.3885 75.9703L53.3694 76.9271L53.3414 77.9247L53.3028 78.9615L53.2519 80.0354L53.187 81.1438L53.1062 82.2833L53.0077 83.4501L52.8899 84.6393L52.7509 85.8456L52.5893 87.0627L52.4035 88.2837L52.1922 89.5008L51.9543 90.7058L51.689 91.8896L51.3959 93.0427L51.0747 94.1552L50.7256 95.2171L50.3492 96.218L49.9467 97.1478L49.5193 97.9967L49.0691 98.7553L48.5984 99.4149L48.1098 99.9679L47.6064 100.408L47.0915 100.729L46.5688 100.927L46.0419 101L45.5148 100.947L44.9911 100.769L44.4748 100.467L43.9693 100.046L43.4781 99.5103L43.0043 98.8672L42.5507 98.1237L42.1196 97.2886L41.713 96.3711L41.3324 95.3808L40.9789 94.328L40.6532 93.2228L40.3556 92.0755L40.0859 90.896L39.8437 89.6938L39.6283 88.478L39.4385 87.2571L39.2731 86.0389L39.1306 84.8304L39.0095 83.6381L38.9081 82.4674L38.8246 81.3232L38.7572 80.2097L38.7042 79.1301L38.6638 78.0872L38.6342 77.0833L38.6138 76.1199L38.601 75.1981L38.5943 74.3187L38.5923 73.4819L38.5936 72.6877L38.5969 71.9358L38.6011 71.2258L38.605 70.5568L38.6077 69.9281L38.6081 69.3387L38.6055 68.7875L38.599 68.2734L38.5878 67.7954L38.5711 67.3521L38.5484 66.9426L38.5189 66.5656L38.482 66.2202L38.437 65.9052L38.3834 65.6196L38.3205 65.3625L38.2478 65.1331L38.1646 64.9305L38.0703 64.754L37.9642 64.6028L37.8457 64.4764L37.7141 64.3741L37.5686 64.2957L37.4085 64.2405L37.233 64.2082L37.0411 64.1986L36.8321 64.2114L36.6049 64.2465L36.3586 64.3036L36.092 64.3827L35.8042 64.4837L35.4939 64.6065L35.1599 64.7513L34.801 64.918L34.4158 65.1065L34.0029 65.317L33.5612 65.5494L33.089 65.8037L32.585 66.0797L32.0478 66.3775L31.476 66.6966L30.8682 67.0369L30.2232 67.3978L29.5398 67.7789L28.817 68.1793L28.0539 68.5982L27.2498 69.0344L26.4043 69.4866L25.5173 69.953L24.5891 70.4319L23.6204 70.9209L22.6123 71.4175L21.5665 71.9189L20.4853 72.4217L19.3715 72.9226L18.2287 73.4174L17.0613 73.9021L15.8742 74.3721L14.6732 74.8226L13.4648 75.2487L12.2562 75.6452L11.0555 76.007L9.8709 76.3289L8.71158 76.6058L7.58687 76.833L6.50639 77.0058L5.47982 77.1203L4.51678 77.1729L3.62656 77.1606L2.81799 77.0813L2.09923 76.9336L1.47754 76.7169L0.959184 76.4314L0.549204 76.0786L0.251355 75.6604L0.0679859 75.1798L0 74.6405L0.0468373 74.047L0.206502 73.4042L0.475629 72.7178L0.849575 71.9935L1.32256 71.2375L1.88779 70.4562L2.53768 69.6556L3.26398 68.8419L4.05798 68.0211L4.9107 67.1987L5.81307 66.3799L6.75606 65.5694L7.73084 64.7715L8.72894 63.9899L9.74229 63.2279L10.7633 62.4882L11.7852 61.773L12.8014 61.0839L13.8062 60.4223L14.7948 59.789L15.7625 59.1845L16.7057 58.6088L17.621 58.0619L18.5059 57.5433L19.3581 57.0524L20.176 56.5884L20.9584 56.1503L21.7043 55.737L22.4131 55.3475L23.0847 54.9805L23.7188 54.6348L24.3156 54.309L24.8755 54.002L25.399 53.7125L25.8864 53.4391L26.3384 53.1808L26.7558 52.9362L27.1391 52.7042L27.489 52.4837L27.8062 52.2735L28.0915 52.0727L28.3453 51.8801L28.5683 51.6948L28.761 51.5159L28.924 51.3423L29.0575 51.1732L29.162 51.0077L29.2377 50.8449L29.2849 50.6839L29.3036 50.5239L29.2939 50.364L29.2558 50.2034L29.1892 50.0412L29.0939 49.8767L28.9697 49.7088L28.8161 49.5367L28.6329 49.3596L28.4196 49.1764L28.1757 48.9863L27.9005 48.7882L27.5935 48.5812L27.2541 48.3641L26.8815 48.1359L26.4751 47.8954L26.0342 47.6415L25.5581 47.3731L25.0462 47.0888L24.498 46.7875L23.9129 46.4679L23.2907 46.1287L22.6311 45.7686L21.9341 45.3864L21.2 44.9808L20.4292 44.5508L19.6224 44.0951L18.781 43.6128L17.9063 43.1031L17.0004 42.5653L16.0658 41.9988L15.1055 41.4035L14.1231 40.7793L13.1229 40.1267L12.1097 39.4462L11.0891 38.7392L10.067 38.007L9.05044 37.2519L8.04663 36.4762L7.06352 35.6832L6.10946 34.8762L5.19318 34.0596L4.32366 33.2377L3.50997 32.4158L2.76114 31.5993L2.086 30.7939L1.49294 30.0057L0.98979 29.241L0.58362 28.5059L0.280544 27.8068L0.0855837 27.1495L0.00252369 26.5397L0.0338047 25.9826L0.180449 25.4829L0.442019 25.0444L0.816623 24.6705L1.30095 24.3635L1.89035 24.1248L2.57893 23.9551L3.35974 23.8541L4.22488 23.8207L5.16572 23.8529L6.17308 23.948L7.23744 24.1027L8.34912 24.313L9.49844 24.5746L10.676 24.8827L11.8725 25.2323L13.0795 25.6184L14.2887 26.0356L15.4928 26.4789L16.685 26.9432L17.8593 27.4237L19.0105 27.9158L20.1339 28.4151L21.2258 28.9178L22.2832 29.42L23.3035 29.9184L24.2849 30.4102L25.2261 30.8925L26.1262 31.3631L26.9849 31.82L27.8022 32.2615L28.5783 32.686L29.3139 33.0924L30.0098 33.4798L30.6668 33.8472L31.2863 34.1941L31.8695 34.52L32.4175 34.8246L32.932 35.1076L33.4141 35.3688L33.8654 35.6081L34.2873 35.8256L34.6812 36.0212L35.0483 36.1948L35.3901 36.3465L35.7078 36.4764L36.0027 36.5844L36.2759 36.6704L36.5286 36.7345L36.7617 36.7766L36.9764 36.7965L37.1737 36.7941L37.3543 36.7691L37.5193 36.7212L37.6693 36.6502L37.8053 36.5556L37.9279 36.437L38.0378 36.2937L38.1358 36.1253L38.2225 35.9311L38.2985 35.7103L38.3644 35.4621L38.4209 35.1858L38.4685 34.8802L38.508 34.5446L38.5398 34.1778L38.5646 33.7787L38.5831 33.3464L38.596 32.8795L38.6039 32.377L38.6077 31.8378L38.6081 31.2606L38.606 30.6446L38.6024 29.9885L38.5982 29.2917L38.5945 28.5532L38.5924 27.7725L38.5933 26.9493L38.5983 26.0834L38.609 25.1751L38.6268 24.2248L38.6532 23.2337L38.69 22.203L38.7389 21.1349L38.8015 20.0318L38.8796 18.8969L38.9752 17.7342L39.0898 16.5482L39.2253 15.3442L39.3832 14.1284L39.5651 12.9075L39.7722 11.6892L40.0058 10.4817L40.2667 9.29397L40.5553 8.13532L40.8721 7.01564L41.2168 5.94504L41.5888 4.93376L41.9873 3.99196L42.4108 3.12954L42.8575 2.35596L43.3252 1.67998L43.8111 1.1095L44.3124 0.651364L44.8257 0.311166L45.3474 0.0931329L45.8739 0L46.4012 0.0329433L46.9257 0.191546L47.4435 0.473812L47.9509 0.876216L48.4445 1.3938L48.9213 2.02029L49.3783 2.74829L49.8132 3.5694L50.2238 4.47448L50.6086 5.45383L50.9665 6.49736L51.2966 7.59486L51.5987 8.73614L51.8728 9.9112L52.1193 11.1104L52.339 12.3246L52.5328 13.5452L52.702 14.7644L52.848 15.9748L52.9724 17.1701L53.0768 18.3446L53.163 19.4933L53.2329 20.612L53.2881 21.6972L53.3304 22.746L53.3616 23.7563L53.3833 24.7262L53.3972 25.6547L53.4047 26.5409L53.4074 27.3845L53.4066 28.1855L53.4035 28.944L53.3994 29.6607L53.3954 30.3361L53.3924 30.9712L53.3916 31.5668L53.3936 32.124L53.3995 32.6439L53.4099 33.1277L53.4256 33.5764L53.4473 33.9912L53.4757 34.3733L53.5115 34.7237L53.5551 35.0435L53.6073 35.3337L53.6686 35.5952L53.7397 35.829L53.8212 36.0358L53.9137 36.2164L54.0179 36.3716L54.1343 36.5019L54.2638 36.608L54.407 36.6902L54.5648 36.7491L54.7378 36.785L54.927 36.7982L55.1332 36.7889L55.3575 36.7574L55.6007 36.7038L55.8639 36.6282L56.1483 36.5307L56.4549 36.4113L56.7851 36.27L57.14 36.1068L57.5209 35.9218L57.9292 35.7148L58.3663 35.4859L58.8335 35.2351L59.3324 34.9625L59.8642 34.6682L60.4304 34.3525L61.0324 34.0155L61.6713 33.6578L62.3485 33.2799L63.065 32.8825L63.8217 32.4665L64.6192 32.033L65.4581 31.5833L66.3385 31.119L67.2601 30.642L68.2224 30.1544L69.2244 29.6588L70.2643 29.158L71.3401 28.6551L72.4489 28.1537L73.5873 27.6576L74.7511 27.171L75.9355 26.6984L77.1347 26.2444L78.3424 25.8141L79.5514 25.4126L80.754 25.0449L81.9417 24.7163L83.1057 24.4319L84.2365 24.1965L85.3247 24.0147L86.3605 23.8907L87.3343 23.828L88.2367 23.8298L89.0588 23.8983L89.7924 24.0351L90.43 24.2408L90.9652 24.5153L91.3927 24.8576L91.7086 25.2655L91.9103 25.7364L91.9967 26.2666L91.968 26.8519L91.8262 27.4871L91.5742 28.167L91.2166 28.8857L90.7589 29.637L90.2079 30.4148L89.571 31.2127L88.8563 32.0247L88.0725 32.8447L87.2285 33.6672L86.3334 34.487L85.3963 35.2991L84.426 36.0993L83.4311 36.8836L82.4196 37.6489L81.3993 38.3924L80.3772 39.1116L79.3597 39.805L78.3526 40.471L77.3612 41.1089L76.3899 41.718L75.4426 42.2982L74.5226 42.8497L73.6327 43.3728L72.7752 43.8681L71.9517 44.3363L71.1636 44.7785L70.4118 45.1956L69.6971 45.5888L69.0196 45.9593L68.3795 46.3083L67.7768 46.6372L67.211 46.9471L66.6818 47.2393L66.1887 47.5152L65.731 47.7759L65.3082 48.0226L64.9195 48.2565L64.5644 48.4788L64.2419 48.6905L63.9517 48.8927L63.6929 49.0865L63.465 49.2729L63.2675 49.4528L63.0998 49.6272L62.9616 49.7969L62.8525 49.963L62.7722 50.1262L62.7205 50.2874L62.6973 50.4475L62.6958 50.4984Z" fill="#DECDFF"/>
</svg>
